# xmcd
#
# Track frame offsets:
#  150
#  20052
#  39677
#  60014
#  82079
#  88090
#  107887
#  121930
#  149346
#  167207
#
# Disc length: 2554 seconds
#
# Revision: 3
# Processed by: cddbd v1.5.2PL0 Copyright (c) Steve Scherf et al.
# Submitted via: Collectorz.com_Music_Collector 6.11
#
DISCID=8509f80a
DTITLE=Deák Bill Gyula - Mindhalálig Blues
DYEAR=1986
DGENRE=Blues
TTITLE0=Transit Blues I. (Budapest - Rotterdam)
TTITLE1=Ne Fordulj El
TTITLE2=Válaszolni Kell
TTITLE3=Tudod Minden Blues
TTITLE4=I.N.R.B (In Memoriam Radics Béla)
TTITLE5=Mindhalálig Holnap
TTITLE6=Tied Minden Dal
TTITLE7=Kérlek Anyám, Ne Ölj Meg Engem
TTITLE8=Transit Blues II. (Rotterdam - Budapest)
TTITLE9=Mindhalálig Blues
EXTD=
EXTT0=
EXTT1=
EXTT2=
EXTT3=
EXTT4=
EXTT5=
EXTT6=
EXTT7=
EXTT8=
EXTT9=
PLAYORDER=
